# xmcd
#
# Track frame offsets:
#	150
#	14245
#	25182
#	39222
#	54261
#	70029
#	83260
#	98246
#	113366
#	127784
#	140852
#	154947
#	170229
#	187292
#	198742
#	213188
#	228741
#	242593
#	257687
#	273050
#
# Disc length: 3833 seconds
#
# Revision: 1
# Processed by: cddbd v1.5PL3 Copyright (c) Steve Scherf et al.
# Submitted via: MusicManager 7.0.3.0 
#
DISCID=120ef714
DTITLE=Nelson Gonçalves - As 20 Mais
DYEAR=1014
DGENRE=Samba Canção
TTITLE0=Meu Vício e Você
TTITLE1=Ela Me Beijou
TTITLE2=A Volta do Boêmio
TTITLE3=Castigo
TTITLE4=A Flor do Meu Bairro
TTITLE5=Fica Comigo Essa Noite
TTITLE6=A Noite do Meu Bem
TTITLE7=Hoje Quem Paga Sou Eu
TTITLE8=Pensando em Ti
TTITLE9=Nem as Paredes Confesso
TTITLE10=Vermelho 27
TTITLE11=Revolta
TTITLE12=Chão de Estrelas
TTITLE13=Carlos Gardel
TTITLE14=Deusa do Asfalto
TTITLE15=Renúncia
TTITLE16=Naquela Mesa
TTITLE17=Caminhemos
TTITLE18=Maria Bethânia
TTITLE19=Mágoas de Caboclo
EXTD=
EXTT0=
EXTT1=
EXTT2=
EXTT3=
EXTT4=
EXTT5=
EXTT6=
EXTT7=
EXTT8=
EXTT9=
EXTT10=
EXTT11=
EXTT12=
EXTT13=
EXTT14=
EXTT15=
EXTT16=
EXTT17=
EXTT18=
EXTT19=
PLAYORDER=
